HIERARCHY
ROOT Hips
{
	OFFSET 0.000000 0.000000 0.000000
	CHANNELS 6 Xposition Yposition Zposition Xrotation Yrotation Zrotation
	JOINT LeftUpLeg_virtual
	{
		OFFSET 0.000000 0.000000 0.000000
		CHANNELS 3 Xrotation Yrotation Zrotation
		JOINT LeftUpLeg
		{
			OFFSET 10.205400 -3.823500 0.155100
			CHANNELS 3 Xrotation Yrotation Zrotation
			JOINT LeftLeg
			{
				OFFSET 0.708757 -12.982077 0.567790
				CHANNELS 3 Xrotation Yrotation Zrotation
				JOINT LeftFoot
				{
					OFFSET -0.708756 -10.717838 -2.184338
					CHANNELS 3 Xrotation Yrotation Zrotation
					JOINT LeftToeBase
					{
						OFFSET 0.108149 -7.191104 7.560241
						CHANNELS 3 Xrotation Yrotation Zrotation
						JOINT LeftToe_End
						{
							OFFSET 0.070230 0.081724 4.490308
							CHANNELS 3 Xrotation Yrotation Zrotation
							End Site
							{
								OFFSET 0 0 0
							}
						}
					}
				}
			}
		}
	}
	JOINT RightUpLeg_virtual
	{
		OFFSET 0.000000 0.000000 0.000000
		CHANNELS 3 Xrotation Yrotation Zrotation
		JOINT RightUpLeg
		{
			OFFSET -10.205400 -3.823500 0.005500
			CHANNELS 3 Xrotation Yrotation Zrotation
			JOINT RightLeg
			{
				OFFSET -0.708756 -12.982134 0.610632
				CHANNELS 3 Xrotation Yrotation Zrotation
				JOINT RightFoot
				{
					OFFSET 0.708754 -10.717769 -1.945823
					CHANNELS 3 Xrotation Yrotation Zrotation
					JOINT RightToeBase
					{
						OFFSET -0.108140 -7.191069 7.372968
						CHANNELS 3 Xrotation Yrotation Zrotation
						JOINT RightToe_End
						{
							OFFSET -0.070227 0.081735 4.479403
							CHANNELS 3 Xrotation Yrotation Zrotation
							End Site
							{
								OFFSET 0 0 0
							}
						}
					}
				}
			}
		}
	}
	JOINT Spine_virtual
	{
		OFFSET 0.000000 0.000000 0.000000
		CHANNELS 3 Xrotation Yrotation Zrotation
		JOINT Spine
		{
			OFFSET 0.000000 6.876099 0.125700
			CHANNELS 3 Xrotation Yrotation Zrotation
			JOINT Spine1
			{
				OFFSET 0.000000 5.730043 0.104720
				CHANNELS 3 Xrotation Yrotation Zrotation
				JOINT Spine1_split
				{
					OFFSET 0.000000 5.730043 0.104720
					CHANNELS 3 Xrotation Yrotation Zrotation
					JOINT Spine2
					{
						OFFSET 0.000000 5.730043 0.104720
						CHANNELS 3 Xrotation Yrotation Zrotation
						JOINT Neck_virtual
						{
							OFFSET 0.000000 0.000000 0.000000
							CHANNELS 3 Xrotation Yrotation Zrotation
							JOINT Neck
							{
								OFFSET 0.000000 10.314075 0.188496
								CHANNELS 3 Xrotation Yrotation Zrotation
								JOINT Head
								{
									OFFSET 0.000000 7.643700 -2.377400
									CHANNELS 3 Xrotation Yrotation Zrotation
									JOINT HeadTop_End
									{
										OFFSET 0.000000 43.788605 -13.619600
										CHANNELS 3 Xrotation Yrotation Zrotation
										End Site
										{
											OFFSET 0 0 0
										}
									}
								}
							}
						}
						JOINT LeftShoulder_virtual
						{
							OFFSET 0.000000 0.000000 0.000000
							CHANNELS 3 Xrotation Yrotation Zrotation
							JOINT LeftShoulder
							{
								OFFSET 2.196100 4.412489 0.087492
								CHANNELS 3 Xrotation Yrotation Zrotation
								JOINT LeftShoulder_split
								{
									OFFSET 2.196100 4.412489 0.087492
									CHANNELS 3 Xrotation Yrotation Zrotation
									JOINT LeftArm
									{
										OFFSET 8.771219 -2.981674 -0.026999
										CHANNELS 3 Xrotation Yrotation Zrotation
										JOINT LeftForeArm
										{
											OFFSET 8.512804 0.000000 -0.000000
											CHANNELS 3 Xrotation Yrotation Zrotation
											JOINT LeftHand
											{
												OFFSET 18.484802 0.000000 -0.000000
												CHANNELS 3 Xrotation Yrotation Zrotation
												End Site
												{
													OFFSET 0 0 0
												}
											}
										}
									}
								}
							}
						}
						JOINT RightShoulder_virtual
						{
							OFFSET 0.000000 0.000000 0.000000
							CHANNELS 3 Xrotation Yrotation Zrotation
							JOINT RightShoulder
							{
								OFFSET -2.196100 4.412496 0.070690
								CHANNELS 3 Xrotation Yrotation Zrotation
								JOINT RightShoulder_split
								{
									OFFSET -2.196100 4.412496 0.070690
									CHANNELS 3 Xrotation Yrotation Zrotation
									JOINT RightArm
									{
										OFFSET -8.771282 -2.981682 -0.094208
										CHANNELS 3 Xrotation Yrotation Zrotation
										JOINT RightForeArm
										{
											OFFSET -8.494598 0.000000 0.000000
											CHANNELS 3 Xrotation Yrotation Zrotation
											JOINT RightHand
											{
												OFFSET -18.483803 0.000000 0.000001
												CHANNELS 3 Xrotation Yrotation Zrotation
												End Site
												{
													OFFSET 0 0 0
												}
											}
										}
									}
								}
							}
						}
					}
				}
			}
		}
	}
}
MOTION
Frames: 4
Frame Time: 0.03333333
-0.327978 30.971973 2.170252 0.000000 0.000000 0.000000 29.268484 -6.110978 -4.698879 -64.964019 5.686319 0.502671 75.552834 -12.831700 0.885309 -1.617866 3.714241 11.496489 -24.421857 -1.669959 6.193823 0.000000 0.000000 0.000000 28.385658 -7.494545 -4.544335 -21.951224 -18.622024 6.878215 31.846136 -0.653025 2.702431 -32.699807 -3.875805 2.766888 -5.144219 -1.050491 1.456860 0.000000 0.000000 0.000000 27.851619 -6.014738 -4.108129 4.193600 3.305999 0.404181 -0.162862 1.634256 -0.392856 0.594845 0.664738 -0.346526 0.000000 0.000000 0.000000 0.279295 1.540371 -0.354860 -11.464593 0.898293 2.832529 -10.842206 2.728231 -2.355855 0.000000 0.000000 0.000000 -0.479264 1.844884 -0.567598 1.176699 0.387802 -19.764867 2.927601 -2.302152 -0.155611 18.843315 -3.389021 -43.184725 2.678909 -68.700788 0.477956 0.000000 0.000000 0.000000 0.262247 1.553092 -0.911101 1.582277 4.915313 18.776284 2.443997 2.098199 -2.750006 8.152484 -10.837758 51.283461 -0.579120 67.519118 1.843799 0.000000 0.000000 0.000000 
-0.479238 30.747446 3.531744 0.000000 0.000000 0.000000 28.560579 -7.444023 -4.622476 -67.418782 7.415301 1.187326 70.807854 -11.789917 -0.185188 -4.210856 3.557173 12.530462 -21.536020 -1.105030 5.461780 0.000000 0.000000 0.000000 29.052278 -7.942168 -4.362455 -21.059104 -17.228534 7.684272 31.174042 -1.270469 2.837652 -30.958994 -4.660005 5.039525 -12.307175 -1.485321 1.460901 0.000000 0.000000 0.000000 27.550675 -5.104279 -4.632721 4.501332 3.481004 0.242318 -0.092318 1.731981 -0.368291 0.480562 1.766803 -0.364481 0.000000 0.000000 0.000000 0.085401 1.589545 -0.428759 -11.575114 0.673589 2.898359 -11.141804 2.630779 -2.267276 0.000000 0.000000 0.000000 -0.437702 1.943182 -0.529208 1.167023 0.328035 -19.499920 2.575491 -1.917101 -0.367988 18.451493 -3.689757 -43.676334 2.758189 -69.104268 0.687335 0.000000 0.000000 0.000000 0.279570 1.644195 -0.979994 1.572338 5.156836 18.582906 2.989907 2.186640 -2.760570 7.942732 -10.400871 51.193801 -0.561313 68.812564 1.722727 0.000000 0.000000 0.000000 
-0.887709 30.503555 5.271698 0.000000 0.000000 0.000000 27.930862 -9.290286 -4.264603 -71.568006 8.515000 2.407065 66.673397 -11.350364 -0.905374 -4.770037 4.057053 11.380323 -14.229451 -0.095523 3.595897 0.000000 0.000000 0.000000 29.065976 -8.460611 -4.293704 -18.651261 -15.386982 8.622177 31.339466 -1.943068 3.080871 -32.465354 -5.249763 6.301010 -13.257439 -1.319464 0.849679 0.000000 0.000000 0.000000 26.932367 -4.782809 -5.149638 4.940848 3.781875 -0.055337 0.002828 1.882643 -0.375767 0.541720 2.707970 0.038336 0.000000 0.000000 0.000000 -0.012737 1.706127 -0.535420 -11.944974 0.366844 2.773492 -11.787904 2.211144 -2.036886 0.000000 0.000000 0.000000 -0.361357 2.098469 -0.501096 1.201435 0.471657 -19.007059 2.180099 -1.600645 -0.685217 17.763097 -4.025646 -44.481542 3.094505 -69.367845 1.251541 0.000000 0.000000 0.000000 0.252108 1.773807 -1.082356 1.562921 5.544534 18.236731 3.431886 2.368398 -2.641600 8.557454 -9.974365 51.213165 -0.578911 70.804330 1.625194 0.000000 0.000000 0.000000 
-1.444123 30.254633 7.094653 0.000000 0.000000 0.000000 27.315445 -10.967391 -3.659930 -75.511430 8.783871 3.150849 62.857480 -11.197546 -1.061760 -3.404936 4.974322 9.269192 -8.062168 0.452202 2.519732 0.000000 0.000000 0.000000 28.670689 -9.341114 -4.142363 -15.593832 -13.577158 8.964892 31.082248 -2.435724 3.238465 -36.769900 -5.415468 6.810495 -8.307183 -0.443759 -0.249057 0.000000 0.000000 0.000000 26.459958 -4.946534 -5.431688 5.467488 4.146371 -0.608591 0.085998 2.042002 -0.390699 0.889587 2.906771 0.455388 0.000000 0.000000 0.000000 -0.021849 1.894485 -0.631507 -12.452014 0.082770 2.518462 -12.586259 1.678860 -1.776174 0.000000 0.000000 0.000000 -0.270084 2.285553 -0.476819 1.261313 0.710188 -18.371506 1.855782 -1.360516 -1.034859 16.938871 -4.204029 -45.576408 3.504433 -69.439016 1.977017 0.000000 0.000000 0.000000 0.211305 1.930862 -1.186283 1.579942 5.950571 17.789708 3.584923 2.635992 -2.424464 10.040117 -9.757524 51.439063 -0.579514 73.152487 1.504596 0.000000 0.000000 0.000000 
